# xmcd
#
# Track frame offsets:
#	150
#	14437
#	28860
#	45902
#	67762
#
# Disc length: 1139 seconds
#
# Revision: 1
# Processed by: cddbd v1.5.1PL0 Copyright (c) Steve Scherf et al.
# Submitted via: EasyCDDAExtractor 7.0.5.3
#
DISCID=32047105
DTITLE=Jake´s Blues Band - Generation B
DYEAR=2000
DGENRE=Blues
TTITLE0=Crosstown Traffic
TTITLE1=On A Rounds
TTITLE2=Tell Me Baby
TTITLE3=100 Miles
TTITLE4=Kappale 5
EXTD=
EXTT0=
EXTT1=
EXTT2=
EXTT3=
EXTT4=
PLAYORDER=
